<svg width="15" height="15" viewBox="0 0 15 15" fill="none" xmlns="http://www.w3.org/2000/svg">
<path d="M9.28264 7.50001L14.6308 2.15188C14.7478 2.03482 14.8407 1.89586 14.904 1.74292C14.9674 1.58998 15 1.42606 15 1.26052C15 1.09499 14.9673 0.931069 14.904 0.778133C14.8406 0.625197 14.7478 0.486236 14.6307 0.369186C14.5137 0.252135 14.3747 0.159287 14.2218 0.0959418C14.0688 0.0325968 13.9049 -4.09894e-06 13.7394 3.86549e-10C13.5738 4.09972e-06 13.4099 0.0326132 13.257 0.0959659C13.104 0.159318 12.9651 0.252174 12.848 0.36923L7.49999 5.71727L2.15196 0.36923C2.03491 0.252174 1.89594 0.159318 1.74301 0.0959659C1.59007 0.0326132 1.42616 4.09848e-06 1.26062 3.86549e-10C1.09508 -4.09771e-06 0.931161 0.0325968 0.778222 0.0959418C0.625283 0.159287 0.486318 0.252135 0.369261 0.369186C0.252205 0.486236 0.15935 0.625197 0.0959971 0.778133C0.0326445 0.931069 3.53517e-05 1.09499 3.12561e-05 1.26052C2.71605e-05 1.42606 0.0326286 1.58998 0.0959737 1.74292C0.159319 1.89586 0.252167 2.03482 0.369218 2.15188L5.71734 7.50001L0.369218 12.848C0.252161 12.9651 0.159307 13.1041 0.0959568 13.257C0.0326064 13.4099 0 13.5739 0 13.7394C0 13.905 0.0326064 14.0689 0.0959568 14.2218C0.159307 14.3748 0.252161 14.5137 0.369218 14.6308C0.605623 14.8672 0.926258 15 1.26059 15C1.42613 15 1.59005 14.9674 1.74299 14.904C1.89593 14.8407 2.0349 14.7478 2.15196 14.6308L7.49999 9.28266L12.848 14.6308C13.0844 14.8672 13.4051 15 13.7394 15C14.0737 15 14.3944 14.8672 14.6308 14.6308C14.8672 14.3944 15 14.0737 15 13.7394C15 13.4051 14.8672 13.0845 14.6308 12.848L9.28264 7.50001Z" fill="white"/>
</svg>
