<svg width="40" height="36" viewBox="0 0 40 36" fill="none" xmlns="http://www.w3.org/2000/svg">
<g filter="url(#filter0_d_1_3829)">
<path d="M32.9258 23.2252L32.6789 23.6529C32.5603 23.8582 32.3594 24.0038 32.1258 24.052L32.1101 24.0551L13.1571 27.9418L7.04657 9.58466L7.04137 9.56947C6.96767 9.3438 6.99199 9.09628 7.11052 8.89097L7.35744 8.4633C7.3733 8.43583 7.39665 8.40744 7.4288 8.37895C7.62705 8.19872 8.11432 8.01617 8.73207 7.84621C10.3949 7.38852 12.994 7.02151 13.3788 7.00131C13.4006 6.99989 13.4283 7.00023 13.4607 7.00147C14.2201 7.03016 17.5964 7.68206 17.5964 7.68206C17.5964 7.68206 21.415 9.15961 23.3545 10.2794C25.2953 11.3999 28.4842 13.9682 28.4842 13.9682C28.4842 13.9682 30.9305 16.7895 31.1825 17.2803C31.1831 17.2824 31.1836 17.2844 31.1855 17.2872C31.3826 17.6766 32.4823 20.4232 32.8571 22.0695C32.9699 22.5689 33.017 22.9675 32.9502 23.1678L32.9258 23.2252Z" fill="url(#paint0_linear_1_3829)"/>
<path d="M15.3327 17.0263L15.2899 16.8037L20.8322 14.7236L21.6808 20.5025L15.3327 17.0263Z" fill="url(#paint1_linear_1_3829)"/>
<path d="M24.1247 15.4904L20.8322 14.7236L21.6809 20.5025L27.4062 17.7048L24.1247 15.4904Z" fill="url(#paint2_linear_1_3829)"/>
<path d="M27.9215 23.3363L28.6934 23.4187L27.4058 17.7055L21.6805 20.5032L27.9215 23.3363Z" fill="url(#paint3_linear_1_3829)"/>
<path d="M30.1407 16.9013L31.1858 17.2879L28.694 23.4191L27.4064 17.7059L30.1407 16.9013Z" fill="url(#paint4_linear_1_3829)"/>
<path d="M30.5068 23.6658L28.6937 23.4183L31.1855 17.2871L32.5068 23.6248L30.5068 23.6658Z" fill="url(#paint5_linear_1_3829)"/>
<path d="M32.9259 23.2251L32.8353 23.382L32.5068 23.6248L31.1855 17.2871C31.3827 17.6765 32.4824 20.4231 32.8572 22.0694C32.97 22.5687 33.0171 22.9673 32.9503 23.1677L32.9259 23.2251Z" fill="url(#paint6_linear_1_3829)"/>
<path d="M17.5636 11.3262L14.9646 10.5232L15.2898 16.8052L20.8321 14.7251L17.5636 11.3262Z" fill="url(#paint7_linear_1_3829)"/>
<path d="M9.4637 12.6942L9.30602 12.2254L14.9643 10.5224L15.2896 16.8045L9.4637 12.6942Z" fill="url(#paint8_linear_1_3829)"/>
<path d="M14.6898 8.47383L14.9643 10.5214L9.30597 12.2244L13.4605 7.00089L14.6898 8.47383Z" fill="url(#paint9_linear_1_3829)"/>
<path d="M7.6939 10.1472L9.30594 12.226L13.4604 7.00243L7.22058 9.02704L7.6939 10.1472Z" fill="url(#paint10_linear_1_3829)"/>
<path d="M13.461 7.00194L7.22117 9.02655L7.13885 8.843L7.35782 8.46373C7.37368 8.43626 7.39703 8.40788 7.42918 8.37938C7.62743 8.19916 8.1147 8.01661 8.73245 7.84664C10.3952 7.38895 12.9944 7.02195 13.3792 7.00174C13.4009 7.00036 13.4287 7.00066 13.461 7.00194Z" fill="url(#paint11_linear_1_3829)"/>
<path d="M13.1572 27.9417L21.4278 20.941L28.4408 23.8564L13.1572 27.9417Z" fill="url(#paint12_linear_1_3829)"/>
<path d="M32.1262 24.0518L13.1575 27.9416L28.4411 23.8563L32.1262 24.0518Z" fill="url(#paint13_linear_1_3829)"/>
<path d="M15.0851 17.2778L13.1576 27.9408L9.05371 12.6621L15.0851 17.2778Z" fill="url(#paint14_linear_1_3829)"/>
<path d="M9.05386 12.664L13.1577 27.9426L7.04199 9.57031L9.05386 12.664Z" fill="url(#paint15_linear_1_3829)"/>
<path d="M31.1857 17.2876L27.4061 17.7055L20.8319 14.7244L14.9645 10.5223L13.8104 7.89325L13.4326 7.03259L13.4608 7.0018C14.2201 7.0306 17.5966 7.68261 17.5966 7.68261C17.5966 7.68261 21.4149 9.16023 23.3541 10.2799C25.2953 11.4006 28.4841 13.9686 28.4841 13.9686C28.4841 13.9686 28.7961 14.328 29.2087 14.8135C29.9519 15.6861 31.0205 16.9652 31.1826 17.2806C31.1832 17.2829 31.1833 17.2849 31.1857 17.2876Z" fill="url(#paint16_linear_1_3829)"/>
<path d="M14.003 8.33116L14.965 10.5224L20.8325 14.7243L27.4065 17.7055L30.0136 17.4172L27.4185 17.5988L20.99 14.4516L15.0647 10.4582L14.003 8.33116Z" fill="#FFF069"/>
<path d="M32.9261 23.2257L32.6792 23.6533C32.5606 23.8587 32.3597 24.0043 32.1261 24.0525L32.1103 24.0556L28.441 23.857L21.4279 20.9415L15.0849 17.2793L9.05349 12.6636L7.04685 9.58514L7.04165 9.56994C6.96794 9.34427 6.99226 9.09675 7.1108 8.89144L7.35772 8.46377C7.36753 8.44678 7.37864 8.43053 7.39519 8.41392L7.22105 9.02662L9.30643 12.2255L15.3379 16.8412L21.6809 20.5034L28.6939 23.4189L32.5069 23.6254L32.9505 23.1683L32.9261 23.2257Z" fill="url(#paint17_radial_1_3829)"/>
<path d="M9.30566 12.2246L15.2892 16.8037L21.6802 20.5025L28.6931 23.418L21.7386 20.4012L15.3603 16.6806L9.30566 12.2246Z" fill="#FFF069"/>
<path d="M21.1426 14.6701L20.8318 14.7234L21.6729 20.4505L21.1426 14.6701Z" fill="#FFF069"/>
<path d="M20.724 14.4286L20.8331 14.7245L15.4528 16.8596L20.724 14.4286Z" fill="#FFF069"/>
<path d="M31.1863 17.2878L27.4068 17.7058L20.8325 14.7247L14.9651 10.5226L13.811 7.8935C17.8643 10.0066 23.8971 12.9624 29.2093 14.8137C29.9525 15.6864 31.0211 16.9654 31.1831 17.2808C31.1838 17.2831 31.1839 17.2852 31.1863 17.2878Z" fill="url(#paint18_linear_1_3829)"/>
</g>
<defs>
<filter id="filter0_d_1_3829" x="0" y="0" width="39.9814" height="34.9434" filterUnits="userSpaceOnUse" color-interpolation-filters="sRGB">
<feFlood flood-opacity="0" result="BackgroundImageFix"/>
<feColorMatrix in="SourceAlpha" type="matrix" values="0 0 0 0 0 0 0 0 0 0 0 0 0 0 0 0 0 0 127 0" result="hardAlpha"/>
<feOffset/>
<feGaussianBlur stdDeviation="3.5"/>
<feComposite in2="hardAlpha" operator="out"/>
<feColorMatrix type="matrix" values="0 0 0 0 0.960784 0 0 0 0 0.65098 0 0 0 0 0.137255 0 0 0 0.7 0"/>
<feBlend mode="normal" in2="BackgroundImageFix" result="effect1_dropShadow_1_3829"/>
<feBlend mode="normal" in="SourceGraphic" in2="effect1_dropShadow_1_3829" result="shape"/>
</filter>
<linearGradient id="paint0_linear_1_3829" x1="19.5403" y1="16.8859" x2="13.1649" y2="27.9283" gradientUnits="userSpaceOnUse">
<stop offset="0.0814" stop-color="#BD5F00"/>
<stop offset="0.2175" stop-color="#C06500"/>
<stop offset="0.3956" stop-color="#CA7501"/>
<stop offset="0.5969" stop-color="#DA9002"/>
<stop offset="0.814" stop-color="#EFB604"/>
<stop offset="0.8366" stop-color="#F2BA04"/>
</linearGradient>
<linearGradient id="paint1_linear_1_3829" x1="18.2906" y1="18.9905" x2="21.1138" y2="14.1005" gradientUnits="userSpaceOnUse">
<stop stop-color="#DB7D00"/>
<stop offset="0.3462" stop-color="#ECAA03"/>
<stop offset="0.6751" stop-color="#FACF05"/>
<stop offset="0.8492" stop-color="#FFDD06"/>
</linearGradient>
<linearGradient id="paint2_linear_1_3829" x1="22.2135" y1="20.8908" x2="24.6797" y2="14.8388" gradientUnits="userSpaceOnUse">
<stop offset="0.0646" stop-color="#DB7D00"/>
<stop offset="0.9218" stop-color="#FFDD06"/>
</linearGradient>
<linearGradient id="paint3_linear_1_3829" x1="25.2638" y1="23.2301" x2="24.8025" y2="15.6126" gradientUnits="userSpaceOnUse">
<stop offset="0.0814" stop-color="#BD5F00"/>
<stop offset="0.2175" stop-color="#C06500"/>
<stop offset="0.3956" stop-color="#CA7501"/>
<stop offset="0.5969" stop-color="#DA9002"/>
<stop offset="0.814" stop-color="#EFB604"/>
<stop offset="0.8366" stop-color="#F2BA04"/>
</linearGradient>
<linearGradient id="paint4_linear_1_3829" x1="26.7733" y1="16.7933" x2="32.4115" y2="23.1323" gradientUnits="userSpaceOnUse">
<stop offset="0.0419" stop-color="#953D00"/>
<stop offset="0.7488" stop-color="#CB7801"/>
</linearGradient>
<linearGradient id="paint5_linear_1_3829" x1="27.8048" y1="21.75" x2="32.9064" y2="20.1165" gradientUnits="userSpaceOnUse">
<stop offset="0.3099" stop-color="#732400"/>
<stop offset="0.8679" stop-color="#9C4500"/>
</linearGradient>
<linearGradient id="paint6_linear_1_3829" x1="29.9786" y1="19.3777" x2="33.855" y2="21.6158" gradientUnits="userSpaceOnUse">
<stop offset="0.0419" stop-color="#953D00"/>
<stop offset="0.7488" stop-color="#CB7801"/>
</linearGradient>
<linearGradient id="paint7_linear_1_3829" x1="14.357" y1="16.9457" x2="19.0224" y2="11.2523" gradientUnits="userSpaceOnUse">
<stop offset="0.0646" stop-color="#DB7D00"/>
<stop offset="0.9218" stop-color="#FFDD06"/>
</linearGradient>
<linearGradient id="paint8_linear_1_3829" x1="10.5247" y1="15.1481" x2="17.9999" y2="12.4786" gradientUnits="userSpaceOnUse">
<stop offset="0.0814" stop-color="#BD5F00"/>
<stop offset="0.2175" stop-color="#C06500"/>
<stop offset="0.3956" stop-color="#CA7501"/>
<stop offset="0.5969" stop-color="#DA9002"/>
<stop offset="0.814" stop-color="#EFB604"/>
<stop offset="0.8366" stop-color="#F2BA04"/>
</linearGradient>
<linearGradient id="paint9_linear_1_3829" x1="15.3551" y1="9.58667" x2="7.59296" y2="9.63744" gradientUnits="userSpaceOnUse">
<stop offset="0.0419" stop-color="#953D00"/>
<stop offset="0.7488" stop-color="#CB7801"/>
</linearGradient>
<linearGradient id="paint10_linear_1_3829" x1="11.2933" y1="11.714" x2="10.1906" y2="7.43293" gradientUnits="userSpaceOnUse">
<stop offset="0.3099" stop-color="#732400"/>
<stop offset="0.8679" stop-color="#9C4500"/>
</linearGradient>
<linearGradient id="paint11_linear_1_3829" x1="8.29826" y1="6.83481" x2="12.2427" y2="9.11214" gradientUnits="userSpaceOnUse">
<stop offset="0.0419" stop-color="#953D00"/>
<stop offset="0.7488" stop-color="#CB7801"/>
</linearGradient>
<linearGradient id="paint12_linear_1_3829" x1="21.4067" y1="26.9864" x2="18.2199" y2="21.284" gradientUnits="userSpaceOnUse">
<stop offset="0.1555" stop-color="#621A00"/>
<stop offset="0.301" stop-color="#7A2E00"/>
<stop offset="0.5606" stop-color="#A14E00"/>
<stop offset="0.6965" stop-color="#B05A00"/>
</linearGradient>
<linearGradient id="paint13_linear_1_3829" x1="23.5429" y1="28.1061" x2="22.0961" y2="24.7191" gradientUnits="userSpaceOnUse">
<stop offset="0.0419" stop-color="#953D00"/>
<stop offset="0.7488" stop-color="#CB7801"/>
</linearGradient>
<linearGradient id="paint14_linear_1_3829" x1="9.13787" y1="20.2457" x2="17.1372" y2="20.4721" gradientUnits="userSpaceOnUse">
<stop offset="0.1555" stop-color="#621A00"/>
<stop offset="0.301" stop-color="#7A2E00"/>
<stop offset="0.5606" stop-color="#A14E00"/>
<stop offset="0.6965" stop-color="#B05A00"/>
</linearGradient>
<linearGradient id="paint15_linear_1_3829" x1="8.60526" y1="18.9366" x2="11.1487" y2="18.6301" gradientUnits="userSpaceOnUse">
<stop offset="0.0419" stop-color="#953D00"/>
<stop offset="0.7488" stop-color="#CB7801"/>
</linearGradient>
<linearGradient id="paint16_linear_1_3829" x1="23.7803" y1="9.61192" x2="20.7065" y2="14.9359" gradientUnits="userSpaceOnUse">
<stop offset="0.0653" stop-color="#9B3D00"/>
<stop offset="0.1802" stop-color="#A34800"/>
<stop offset="0.382" stop-color="#B76502"/>
<stop offset="0.6446" stop-color="#D99404"/>
<stop offset="0.9071" stop-color="#FFCA06"/>
</linearGradient>
<radialGradient id="paint17_radial_1_3829" cx="0" cy="0" r="1" gradientUnits="userSpaceOnUse" gradientTransform="translate(19.2147 17.4508) rotate(30) scale(15.1988 15.1988)">
<stop offset="0.213" stop-color="#9C4500"/>
<stop offset="0.8546" stop-color="#732400"/>
</radialGradient>
<linearGradient id="paint18_linear_1_3829" x1="20.9482" y1="15.7998" x2="23.4034" y2="10.718" gradientUnits="userSpaceOnUse">
<stop offset="0.1491" stop-color="white"/>
<stop offset="0.2005" stop-color="#FFF9F1"/>
<stop offset="0.4405" stop-color="#FFDFB4"/>
<stop offset="0.6445" stop-color="#FFCD88"/>
<stop offset="0.8022" stop-color="#FFC16D"/>
<stop offset="0.8946" stop-color="#FFBD63"/>
</linearGradient>
</defs>
</svg>
