<svg width="45" height="35" viewBox="0 0 45 35" fill="none" xmlns="http://www.w3.org/2000/svg">
<g filter="url(#filter0_d_1_3341)">
<path d="M37.3999 13.6164V14.1249C37.3999 14.369 37.2957 14.6023 37.1122 14.7656L37.0997 14.7764L22.1999 28L7.30011 14.7764L7.28765 14.7656C7.10575 14.6023 7 14.369 7 14.1249V13.6164C7 13.5838 7.00621 13.5464 7.02021 13.5045C7.1042 13.2417 7.44473 12.828 7.90809 12.3584C9.1552 11.0942 11.2839 9.42886 11.6167 9.2127C11.6354 9.20024 11.6603 9.18628 11.6898 9.1707C12.3818 8.8053 15.7281 7.64839 15.7281 7.64839C15.7281 7.64839 19.8939 7 22.1999 7C24.5075 7 28.6733 7.64843 28.6733 7.64843C28.6733 7.64843 32.3073 8.90484 32.7847 9.21274C32.7862 9.21428 32.7878 9.21582 32.7909 9.21741C33.1672 9.46311 35.5618 11.3462 36.7436 12.6213C37.1013 13.0085 37.3485 13.3397 37.3921 13.5527L37.3999 13.6164Z" fill="url(#paint0_linear_1_3341)"/>
<path d="M18.5205 17.1464L18.3677 16.97L22.2389 12.2617L25.9709 16.978L18.5205 17.1464Z" fill="url(#paint1_linear_1_3341)"/>
<path d="M25.5695 11.25L22.2388 12.2612L25.9707 16.9775L29.6358 11.5351L25.5695 11.25Z" fill="url(#paint2_linear_1_3341)"/>
<path d="M32.9945 16.2908L33.7253 15.9668L29.6358 11.5352L25.9707 16.9776L32.9945 16.2908Z" fill="url(#paint3_linear_1_3341)"/>
<path d="M31.6598 9.41012L32.7908 9.2168L33.7253 15.967L29.6357 11.5353L31.6598 9.41012Z" fill="url(#paint4_linear_1_3341)"/>
<path d="M35.4697 15.2543L33.7256 15.967L32.791 9.2168L37.232 14.188L35.4697 15.2543Z" fill="url(#paint5_linear_1_3341)"/>
<path d="M37.4 13.6158V13.8024L37.232 14.188L32.791 9.2168C33.1673 9.46249 35.562 11.3455 36.7438 12.6207C37.1014 13.0078 37.3487 13.339 37.3922 13.5521L37.4 13.6158Z" fill="url(#paint6_linear_1_3341)"/>
<path d="M17.5743 10.9141L14.8433 11.5361L18.3675 16.9705L22.2387 12.2622L17.5743 10.9141Z" fill="url(#paint7_linear_1_3341)"/>
<path d="M11.0563 16.3037L10.6743 15.9668L14.8432 11.5352L18.3675 16.9696L11.0563 16.3037Z" fill="url(#paint8_linear_1_3341)"/>
<path d="M13.5443 9.85048L14.8432 11.5351L10.6743 15.9668L11.6897 9.16992L13.5443 9.85048Z" fill="url(#paint9_linear_1_3341)"/>
<path d="M8.16676 14.9431L10.6744 15.9668L11.6899 9.16992L7.16797 14.1878L8.16676 14.9431Z" fill="url(#paint10_linear_1_3341)"/>
<path d="M11.6898 9.16992L7.16791 14.1878L7 14.0666V13.6156C7 13.5829 7.00621 13.5456 7.02021 13.5037C7.1042 13.2409 7.44473 12.8272 7.90809 12.3576C9.1552 11.0934 11.2839 9.42804 11.6167 9.21188C11.6354 9.19946 11.6603 9.18546 11.6898 9.16992Z" fill="url(#paint11_linear_1_3341)"/>
<path d="M22.2002 27.9998L25.971 17.499L33.7257 16.4883L22.2002 27.9998Z" fill="url(#paint12_linear_1_3341)"/>
<path d="M37.1124 14.7656L22.2002 28.0001L33.7257 16.4886L37.1124 14.7656Z" fill="url(#paint13_linear_1_3341)"/>
<path d="M18.429 17.499L22.1998 27.9998L10.6743 16.4883L18.429 17.499Z" fill="url(#paint14_linear_1_3341)"/>
<path d="M10.6744 16.4886L22.1999 28.0001L7.2876 14.7656L10.6744 16.4886Z" fill="url(#paint15_linear_1_3341)"/>
<path d="M32.7912 9.21699L29.636 11.5355L22.2388 12.2619L14.8434 11.5355L12.4607 9.78526L11.6807 9.21233L11.69 9.17033C12.3819 8.80509 15.7285 7.64818 15.7285 7.64818C15.7285 7.64818 19.8941 7 22.1998 7C24.5078 7 28.6734 7.64818 28.6734 7.64818C28.6734 7.64818 29.1366 7.80805 29.7545 8.02858C30.8665 8.42415 32.4779 9.01454 32.7848 9.21233C32.7865 9.21408 32.7877 9.21583 32.7912 9.21699Z" fill="url(#paint16_linear_1_3341)"/>
<path d="M12.8574 10.0781L14.8434 11.5368L22.2389 12.263L29.6359 11.5368L31.8123 9.9375L29.5917 11.4355L22.2389 11.9387L14.8992 11.4282L12.8574 10.0781Z" fill="#FFF069"/>
<path d="M37.3999 13.6165V14.125C37.3999 14.3691 37.2957 14.6024 37.1122 14.7656L37.0997 14.7765L33.7254 16.4885L25.9707 17.4993H18.4291L10.6744 16.4885L7.30011 14.7765L7.28765 14.7656C7.10575 14.6023 7 14.3691 7 14.125V13.6165C7 13.5963 7.00154 13.5761 7.00775 13.5527L7.16791 14.1888L10.6744 15.9676L18.4291 16.9784H25.9707L33.7254 15.9676L37.2319 14.1888L37.3921 13.5527L37.3999 13.6165Z" fill="url(#paint17_radial_1_3341)"/>
<path d="M10.6743 15.9668L18.3675 16.9695L25.9707 16.9775L33.7253 15.9668L25.9707 16.8571L18.3675 16.8231L10.6743 15.9668Z" fill="#FFF069"/>
<path d="M22.4884 12.0547L22.2388 12.2623L25.9373 16.9363L22.4884 12.0547Z" fill="#FFF069"/>
<path d="M21.9899 12.0547L22.2395 12.2623L18.541 16.9363L21.9899 12.0547Z" fill="#FFF069"/>
<path d="M32.7909 9.21771L29.6358 11.5362L22.2386 12.2626L14.8431 11.5362L12.4604 9.78597C17.1628 9.58352 24.0641 9.11329 29.7542 8.0293C30.8662 8.42486 32.4776 9.01526 32.7845 9.21304C32.7863 9.21479 32.7874 9.21654 32.7909 9.21771Z" fill="url(#paint18_linear_1_3341)"/>
</g>
<defs>
<filter id="filter0_d_1_3341" x="0" y="0" width="44.3999" height="35" filterUnits="userSpaceOnUse" color-interpolation-filters="sRGB">
<feFlood flood-opacity="0" result="BackgroundImageFix"/>
<feColorMatrix in="SourceAlpha" type="matrix" values="0 0 0 0 0 0 0 0 0 0 0 0 0 0 0 0 0 0 127 0" result="hardAlpha"/>
<feOffset/>
<feGaussianBlur stdDeviation="3.5"/>
<feComposite in2="hardAlpha" operator="out"/>
<feColorMatrix type="matrix" values="0 0 0 0 0.960784 0 0 0 0 0.65098 0 0 0 0 0.137255 0 0 0 0.7 0"/>
<feBlend mode="normal" in2="BackgroundImageFix" result="effect1_dropShadow_1_3341"/>
<feBlend mode="normal" in="SourceGraphic" in2="effect1_dropShadow_1_3341" result="shape"/>
</filter>
<linearGradient id="paint0_linear_1_3341" x1="22.1999" y1="14.8549" x2="22.1999" y2="27.9839" gradientUnits="userSpaceOnUse">
<stop offset="0.0814" stop-color="#BD5F00"/>
<stop offset="0.2175" stop-color="#C06500"/>
<stop offset="0.3956" stop-color="#CA7501"/>
<stop offset="0.5969" stop-color="#DA9002"/>
<stop offset="0.814" stop-color="#EFB604"/>
<stop offset="0.8366" stop-color="#F2BA04"/>
</linearGradient>
<linearGradient id="paint1_linear_1_3341" x1="22.1693" y1="17.3751" x2="22.1693" y2="11.5611" gradientUnits="userSpaceOnUse">
<stop stop-color="#DB7D00"/>
<stop offset="0.3462" stop-color="#ECAA03"/>
<stop offset="0.6751" stop-color="#FACF05"/>
<stop offset="0.8492" stop-color="#FFDD06"/>
</linearGradient>
<linearGradient id="paint2_linear_1_3341" x1="26.6456" y1="17.0496" x2="25.729" y2="10.3832" gradientUnits="userSpaceOnUse">
<stop offset="0.0646" stop-color="#DB7D00"/>
<stop offset="0.9218" stop-color="#FFDD06"/>
</linearGradient>
<linearGradient id="paint3_linear_1_3341" x1="30.57" y1="17.5644" x2="26.2368" y2="11.0091" gradientUnits="userSpaceOnUse">
<stop offset="0.0814" stop-color="#BD5F00"/>
<stop offset="0.2175" stop-color="#C06500"/>
<stop offset="0.3956" stop-color="#CA7501"/>
<stop offset="0.5969" stop-color="#DA9002"/>
<stop offset="0.814" stop-color="#EFB604"/>
<stop offset="0.8366" stop-color="#F2BA04"/>
</linearGradient>
<linearGradient id="paint4_linear_1_3341" x1="28.6014" y1="11.0474" x2="36.8927" y2="13.7973" gradientUnits="userSpaceOnUse">
<stop offset="0.0419" stop-color="#953D00"/>
<stop offset="0.7488" stop-color="#CB7801"/>
</linearGradient>
<linearGradient id="paint5_linear_1_3341" x1="32.074" y1="14.937" x2="35.7822" y2="10.8539" gradientUnits="userSpaceOnUse">
<stop offset="0.3099" stop-color="#732400"/>
<stop offset="0.8679" stop-color="#9C4500"/>
</linearGradient>
<linearGradient id="paint6_linear_1_3341" x1="32.791" y1="11.7024" x2="37.4" y2="11.7024" gradientUnits="userSpaceOnUse">
<stop offset="0.0419" stop-color="#953D00"/>
<stop offset="0.7488" stop-color="#CB7801"/>
</linearGradient>
<linearGradient id="paint7_linear_1_3341" x1="17.608" y1="17.576" x2="18.8372" y2="10.0971" gradientUnits="userSpaceOnUse">
<stop offset="0.0646" stop-color="#DB7D00"/>
<stop offset="0.9218" stop-color="#FFDD06"/>
</linearGradient>
<linearGradient id="paint8_linear_1_3341" x1="13.2658" y1="17.9456" x2="18.5572" y2="11.7167" gradientUnits="userSpaceOnUse">
<stop offset="0.0814" stop-color="#BD5F00"/>
<stop offset="0.2175" stop-color="#C06500"/>
<stop offset="0.3956" stop-color="#CA7501"/>
<stop offset="0.5969" stop-color="#DA9002"/>
<stop offset="0.814" stop-color="#EFB604"/>
<stop offset="0.8366" stop-color="#F2BA04"/>
</linearGradient>
<linearGradient id="paint9_linear_1_3341" x1="14.7105" y1="10.5003" x2="7.81492" y2="14.5418" gradientUnits="userSpaceOnUse">
<stop offset="0.0419" stop-color="#953D00"/>
<stop offset="0.7488" stop-color="#CB7801"/>
</linearGradient>
<linearGradient id="paint10_linear_1_3341" x1="12.1831" y1="14.4871" x2="8.99574" y2="11.2372" gradientUnits="userSpaceOnUse">
<stop offset="0.3099" stop-color="#732400"/>
<stop offset="0.8679" stop-color="#9C4500"/>
</linearGradient>
<linearGradient id="paint11_linear_1_3341" x1="6.99998" y1="11.6789" x2="11.6898" y2="11.6789" gradientUnits="userSpaceOnUse">
<stop offset="0.0419" stop-color="#953D00"/>
<stop offset="0.7488" stop-color="#CB7801"/>
</linearGradient>
<linearGradient id="paint12_linear_1_3341" x1="29.0646" y1="22.9008" x2="23.2871" y2="19.4565" gradientUnits="userSpaceOnUse">
<stop offset="0.1555" stop-color="#621A00"/>
<stop offset="0.301" stop-color="#7A2E00"/>
<stop offset="0.5606" stop-color="#A14E00"/>
<stop offset="0.6965" stop-color="#B05A00"/>
</linearGradient>
<linearGradient id="paint13_linear_1_3341" x1="31.5458" y1="22.7999" x2="28.5119" y2="20.5246" gradientUnits="userSpaceOnUse">
<stop offset="0.0419" stop-color="#953D00"/>
<stop offset="0.7488" stop-color="#CB7801"/>
</linearGradient>
<linearGradient id="paint14_linear_1_3341" x1="14.6537" y1="23.2075" x2="21.9034" y2="19.291" gradientUnits="userSpaceOnUse">
<stop offset="0.1555" stop-color="#621A00"/>
<stop offset="0.301" stop-color="#7A2E00"/>
<stop offset="0.5606" stop-color="#A14E00"/>
<stop offset="0.6965" stop-color="#B05A00"/>
</linearGradient>
<linearGradient id="paint15_linear_1_3341" x1="13.5037" y1="22.3129" x2="15.614" y2="20.7302" gradientUnits="userSpaceOnUse">
<stop offset="0.0419" stop-color="#953D00"/>
<stop offset="0.7488" stop-color="#CB7801"/>
</linearGradient>
<linearGradient id="paint16_linear_1_3341" x1="22.2359" y1="6.18496" x2="22.2359" y2="12.5149" gradientUnits="userSpaceOnUse">
<stop offset="0.0653" stop-color="#9B3D00"/>
<stop offset="0.1802" stop-color="#A34800"/>
<stop offset="0.382" stop-color="#B76502"/>
<stop offset="0.6446" stop-color="#D99404"/>
<stop offset="0.9071" stop-color="#FFCA06"/>
</linearGradient>
<radialGradient id="paint17_radial_1_3341" cx="0" cy="0" r="1" gradientUnits="userSpaceOnUse" gradientTransform="translate(22.1999 15.526) scale(15.6498 15.6498)">
<stop offset="0.213" stop-color="#9C4500"/>
<stop offset="0.8546" stop-color="#732400"/>
</radialGradient>
<linearGradient id="paint18_linear_1_3341" x1="22.8953" y1="13.1618" x2="22.4683" y2="7.36609" gradientUnits="userSpaceOnUse">
<stop offset="0.1491" stop-color="white"/>
<stop offset="0.2005" stop-color="#FFF9F1"/>
<stop offset="0.4405" stop-color="#FFDFB4"/>
<stop offset="0.6445" stop-color="#FFCD88"/>
<stop offset="0.8022" stop-color="#FFC16D"/>
<stop offset="0.8946" stop-color="#FFBD63"/>
</linearGradient>
</defs>
</svg>
