<svg width="20" height="15" viewBox="0 0 20 15" fill="none" xmlns="http://www.w3.org/2000/svg">
<path d="M18.2143 2.14286H1.07143C0.787268 2.14286 0.514746 2.02997 0.313814 1.82904C0.112882 1.62811 0 1.35559 0 1.07143C0 0.787268 0.112882 0.514746 0.313814 0.313814C0.514746 0.112882 0.787268 5.98824e-09 1.07143 0H18.2143C18.4984 5.98824e-09 18.771 0.112882 18.9719 0.313814C19.1728 0.514746 19.2857 0.787268 19.2857 1.07143C19.2857 1.35559 19.1728 1.62811 18.9719 1.82904C18.771 2.02997 18.4984 2.14286 18.2143 2.14286ZM15 7.5C15 7.21584 14.8871 6.94332 14.6862 6.74239C14.4853 6.54145 14.2127 6.42857 13.9286 6.42857H1.07143C0.787268 6.42857 0.514746 6.54145 0.313814 6.74239C0.112882 6.94332 0 7.21584 0 7.5C0 7.78416 0.112882 8.05668 0.313814 8.25761C0.514746 8.45855 0.787268 8.57143 1.07143 8.57143H13.9286C14.2127 8.57143 14.4853 8.45855 14.6862 8.25761C14.8871 8.05668 15 7.78416 15 7.5ZM10.7143 13.9286C10.7143 13.6444 10.6014 13.3719 10.4005 13.171C10.1995 12.97 9.92702 12.8571 9.64286 12.8571H1.07143C0.787268 12.8571 0.514746 12.97 0.313814 13.171C0.112882 13.3719 0 13.6444 0 13.9286C0 14.2127 0.112882 14.4853 0.313814 14.6862C0.514746 14.8871 0.787268 15 1.07143 15H9.64286C9.92702 15 10.1995 14.8871 10.4005 14.6862C10.6014 14.4853 10.7143 14.2127 10.7143 13.9286Z" fill="white"/>
</svg>
